# xmcd
#
# Track frame offsets:
#  150
#  14005
#  31702
#  49012
#  61697
#  79605
#  95020
#  115707
#  135792
#  151090
#  167262
#  185942
#  199442
#  216932
#
# Disc length: 3064 seconds
#
# Revision: 0
# Processed by: cddbd v1.5.1PL2 Copyright (c) Steve Scherf et al.
# Submitted via: Collectorz.com_Music_Collector 6.11
#
DISCID=af0bf60e
DTITLE=Andy Cowan - Troubadour Nights
DYEAR=2006
DGENRE=Blues -  Blues Piano
TTITLE0=Don't Let Me Be Misunderstood
TTITLE1=Pacing The Cage
TTITLE2=Motherless Child
TTITLE3=In My Life
TTITLE4=I'm Your Man
TTITLE5=Finally Home
TTITLE6=Don't Think Twice It's Alright
TTITLE7=One
TTITLE8=Don't Let The Sun Catch You Crying
TTITLE9=To Love Somebody
TTITLE10=Ruby's Arms
TTITLE11=Don't Let It Bring You Down
TTITLE12=Guilty
TTITLE13='Til There Was You
EXTD=
EXTT0=
EXTT1=
EXTT2=
EXTT3=
EXTT4=
EXTT5=
EXTT6=
EXTT7=
EXTT8=
EXTT9=
EXTT10=
EXTT11=
EXTT12=
EXTT13=
PLAYORDER=
